# xmcd CD database file
#
# Track frame offsets:
#	150
#	22275
#	38850
#	57819
#	71345
#	89715
#	104426
#	120276
#	135647
#	151335
#
# Disc length: 2196 seconds
#
# Revision: 0
# Processed by: cddbd v1.5.2PL0 Copyright (c) Steve Scherf et al.
# Submitted via: CDex 1.70beta2
#
DISCID=8408920a
DTITLE=Aysel Balich - Not only, Jazz
DYEAR=2007
DGENRE=Jazz
TTITLE0=Yalgizam
TTITLE1=The shadow of your smile
TTITLE2=How insensitive
TTITLE3=Summer samba
TTITLE4=Unitmadim
TTITLE5=Sunny
TTITLE6=Corcovado
TTITLE7=Jahondin kech
TTITLE8=I will survive
TTITLE9=Authumn leaves
EXTD=YEAR: 2007
EXTT0=
EXTT1=
EXTT2=
EXTT3=
EXTT4=
EXTT5=
EXTT6=
EXTT7=
EXTT8=
EXTT9=
PLAYORDER=
